<svg width="38" height="20" viewBox="0 0 38 20" fill="none" xmlns="http://www.w3.org/2000/svg">
<path d="M0.253593 9.39101L8.88976 0.754771C9.19999 0.392515 9.74519 0.350286 10.1074 0.660589C10.4697 0.970818 10.5119 1.51602 10.2016 1.87827C10.1727 1.91204 10.1412 1.94359 10.1074 1.97246L2.94806 9.14053H37.1388C37.6158 9.14053 38.0024 9.5272 38.0024 10.0042C38.0024 10.4812 37.6158 10.8678 37.1388 10.8678H2.94806L10.1074 18.0272C10.4697 18.3374 10.5119 18.8826 10.2016 19.2449C9.89132 19.6071 9.34619 19.6493 8.98394 19.339C8.95017 19.3101 8.91863 19.2786 8.88976 19.2449L0.253517 10.6086C-0.0812759 10.2719 -0.0812759 9.72788 0.253593 9.39101Z" fill="white" fill-opacity="0.72"/>
</svg>
