<svg width="52" height="52" viewBox="0 0 52 52" fill="none" xmlns="http://www.w3.org/2000/svg">
<circle cx="26" cy="26" r="26" fill="currentColor"/>
<g clip-path="url(#clip0_1_1852)">
<path fill-rule="evenodd" clip-rule="evenodd" d="M36.5958 18.6904C36.111 18.2503 35.4972 17.9618 34.8258 17.8876C33.3666 17.7243 31.8941 17.6421 30.4167 17.6008C28.9489 17.5598 27.4747 17.5598 26.0038 17.5608C24.5332 17.5598 23.0592 17.5598 21.591 17.6008C20.1135 17.6421 18.6406 17.7243 17.1806 17.8876C16.5098 17.9618 15.8963 18.2504 15.412 18.6907C14.9309 19.128 14.5773 19.7155 14.4226 20.3907C14.2138 21.2958 14.1083 22.24 14.0549 23.1903C14.0013 24.1444 14 25.0865 14 26.0012C14 26.9145 14 27.8555 14.0522 28.8102C14.1043 29.76 14.2087 30.7043 14.4176 31.6095C14.5731 32.285 14.9269 32.8727 15.408 33.3099C15.892 33.7499 16.505 34.0384 17.1755 34.1126C18.6358 34.2759 20.1086 34.3582 21.5861 34.3993C23.0542 34.4403 24.5283 34.4403 25.9992 34.4394C27.4707 34.4403 28.9448 34.4403 30.4126 34.3993C31.8899 34.3582 33.3624 34.2759 34.8224 34.1126C35.4929 34.0384 36.1057 33.7499 36.5899 33.3101C37.0712 32.8729 37.4255 32.2852 37.5821 31.6095C37.7901 30.7043 37.8943 29.76 37.9467 28.8102C37.9982 27.8737 37.9986 26.9235 37.9986 26.0012H37.9995V25.9549H37.9986C37.9986 24.1221 37.9986 22.1812 37.5871 20.3907C37.4316 19.7151 37.0775 19.1277 36.5958 18.6904Z" fill="white"/>
<path fill-rule="evenodd" clip-rule="evenodd" d="M30.5537 25.5494C29.1864 24.8354 27.8284 24.1268 26.4719 23.419C25.3442 22.8305 24.2177 22.2427 23.0878 21.6528L22.7148 21.458V21.8782V29.6452V30.0644L23.0869 29.8717C24.3347 29.2253 25.5773 28.5813 26.8197 27.937L30.5527 26.0012L30.9873 25.7759L30.5537 25.5494Z" fill="currentColor"/>
</g>
<defs>
<clipPath id="clip0_1_1852">
<rect width="24" height="24" fill="white" transform="translate(14 14)"/>
</clipPath>
</defs>
</svg>
