<svg width="24" height="24" viewBox="0 0 24 24" xmlns="http://www.w3.org/2000/svg">
<g clip-path="url(#clip0_13_252)">
<path fill-rule="evenodd" clip-rule="evenodd" d="M22.5958 4.6904C22.111 4.25032 21.4972 3.96176 20.8258 3.8876C19.3666 3.72428 17.8941 3.64206 16.4167 3.60081C14.9489 3.55984 13.4747 3.55984 12.0038 3.56078C10.5332 3.55984 9.05918 3.55984 7.59102 3.60081C6.11349 3.64206 4.64064 3.72428 3.18064 3.8876C2.50984 3.96176 1.89633 4.25042 1.412 4.69068C0.930866 5.12803 0.577326 5.71548 0.422635 6.39069C0.213849 7.29577 0.108284 8.24004 0.0549388 9.19032C0.00131253 10.1444 0 11.0865 0 12.0012C0 12.9145 0 13.8555 0.05222 14.8102C0.104346 15.76 0.208692 16.7043 0.417572 17.6095C0.573107 18.285 0.926928 18.8727 1.40797 19.3099C1.89201 19.7499 2.50497 20.0384 3.17548 20.1126C4.63577 20.2759 6.10861 20.3582 7.58615 20.3993C9.05421 20.4403 10.5283 20.4403 11.9992 20.4394C13.4707 20.4403 14.9448 20.4403 16.4126 20.3993C17.8899 20.3582 19.3624 20.2759 20.8224 20.1126C21.4929 20.0384 22.1057 19.7499 22.5899 19.3101C23.0712 18.8729 23.4255 18.2852 23.5821 17.6095C23.7901 16.7043 23.8943 15.76 23.9467 14.8102C23.9982 13.8737 23.9986 12.9235 23.9986 12.0012H23.9995V11.9549H23.9986C23.9986 10.1221 23.9986 8.18117 23.5871 6.39069C23.4316 5.71511 23.0775 5.12766 22.5958 4.6904Z" />
<path fill-rule="evenodd" clip-rule="evenodd" d="M16.5535 11.5494C15.1861 10.8354 13.8281 10.1268 12.4716 9.41902C11.344 8.83054 10.2174 8.24271 9.08755 7.65282L8.7146 7.45801V7.87821V15.6452V16.0644L9.08661 15.8717C10.3345 15.2253 11.577 14.5813 12.8194 13.937L16.5525 12.0012L16.987 11.7759L16.5535 11.5494Z" fill="currentColor"/>
</g>
<defs>
<clipPath id="clip0_13_252">
<rect width="24" height="24" />
</clipPath>
</defs>
</svg>
