<svg width="52" height="52" viewBox="0 0 52 52" fill="white" xmlns="http://www.w3.org/2000/svg">
<circle cx="26" cy="26" r="26" fill="currentColor"/>
<path d="M20.9207 35.1856C22.4288 36.021 24.1608 36.5 26.0051 36.5C31.8028 36.5 36.5001 31.7926 36.5001 25.9949C36.5001 20.1972 31.8028 15.5 26.0051 15.5C20.2074 15.5 15.5 20.1972 15.5 25.9949C15.5 27.8595 15.9891 29.5917 16.8348 31.1099L15.5 36.5L20.9207 35.1856ZM21.5015 21.3588C21.746 21.1244 22.1027 21.0327 22.4288 21.1041L22.7649 21.1754C23.1012 21.2467 23.3763 21.4709 23.5088 21.7765L24.1711 23.2438C24.3341 23.6004 24.273 24.0284 24.008 24.3238L23.6004 24.8028C23.468 24.9556 23.4375 25.1899 23.5393 25.3734C24.7417 27.5335 26.321 28.2365 27.024 28.4504C27.2278 28.5218 27.4622 28.4301 27.5743 28.2466L27.8698 27.7882C28.1551 27.3501 28.7155 27.1972 29.337 27.5029L30.5597 28.1143C31.0284 28.3384 31.2424 28.8886 31.0692 29.3777C30.4477 31.1811 28.8581 30.957 28.8581 30.957C25.3327 30.8653 22.5713 27.6149 21.3792 25.944C20.829 25.1594 20.4928 24.2118 20.5946 23.2438C20.6966 22.286 21.1449 21.6848 21.5015 21.3588Z" fill="white"/>
</svg>
