<svg width="24" height="24" viewBox="0 0 24 24" fill="none" xmlns="http://www.w3.org/2000/svg">
<path d="M6.9207 21.1856C8.42876 22.021 10.1608 22.5 12.0051 22.5C17.8028 22.5 22.5001 17.7926 22.5001 11.9949C22.5001 6.19721 17.8028 1.5 12.0051 1.5C6.20745 1.5 1.5 6.19721 1.5 11.9949C1.5 13.8595 1.98912 15.5917 2.83479 17.1099L1.5 22.5L6.9207 21.1856ZM7.50151 7.35878C7.746 7.12441 8.10269 7.03272 8.42876 7.10408L8.76494 7.1754C9.10121 7.24667 9.37633 7.47088 9.5088 7.77653L10.1711 9.2438C10.3341 9.6004 10.273 10.0284 10.008 10.3238L9.60044 10.8028C9.46802 10.9556 9.43748 11.1899 9.53933 11.3734C10.7417 13.5335 12.321 14.2365 13.024 14.4504C13.2278 14.5218 13.4622 14.4301 13.5743 14.2466L13.8698 13.7882C14.1551 13.3501 14.7155 13.1972 15.337 13.5029L16.5597 14.1143C17.0284 14.3384 17.2424 14.8886 17.0692 15.3777C16.4477 17.1811 14.8581 16.957 14.8581 16.957C11.3327 16.8653 8.57134 13.6149 7.37924 11.944C6.82901 11.1594 6.49277 10.2118 6.59463 9.24379C6.69658 8.28598 7.14491 7.68485 7.50151 7.35878Z" fill="currentColor"/>
</svg>
