<svg width="26" height="26" viewBox="0 0 26 26" fill="none" xmlns="http://www.w3.org/2000/svg">
<path d="M1.08342 9.83207C1.0613 9.83207 1.04008 9.82328 1.02443 9.80764C1.00879 9.79199 1 9.77077 1 9.74865V1.08342C1 1.0613 1.00879 1.04008 1.02443 1.02443L0.317328 0.317328L1.02443 1.02443C1.04008 1.00879 1.0613 1 1.08342 1H9.75081C9.77294 1 9.79416 1.00879 9.8098 1.02443C9.82545 1.04008 9.83424 1.0613 9.83424 1.08342V9.74865C9.83424 9.77077 9.82545 9.79199 9.8098 9.80764C9.79416 9.82328 9.77294 9.83207 9.75081 9.83207H1.08342ZM16.2514 9.83207C16.2292 9.83207 16.208 9.82328 16.1924 9.80764C16.1767 9.79199 16.1679 9.77077 16.1679 9.74865V1.08342C16.1679 1.0613 16.1767 1.04008 16.1924 1.02443C16.208 1.00879 16.2292 1 16.2514 1H24.9166C24.9387 1 24.9599 1.00879 24.9756 1.02444C24.9912 1.04008 25 1.0613 25 1.08342V9.74865C25 9.77077 24.9912 9.79199 24.9756 9.80764C24.9599 9.82328 24.9387 9.83207 24.9166 9.83207H16.2514ZM1.08342 25C1.0613 25 1.04008 24.9912 1.02444 24.9756L0.320262 25.6797L1.02443 24.9756C1.00879 24.9599 1 24.9387 1 24.9166V16.2492C1 16.2271 1.00879 16.2058 1.02443 16.1902C1.04008 16.1746 1.0613 16.1658 1.08342 16.1658H9.75081C9.77294 16.1658 9.79416 16.1746 9.8098 16.1902C9.82545 16.2058 9.83424 16.2271 9.83424 16.2492V24.9166C9.83424 24.9387 9.82545 24.9599 9.8098 24.9756C9.79416 24.9912 9.77294 25 9.75081 25H1.08342ZM16.2514 25C16.2292 25 16.208 24.9912 16.1924 24.9756C16.1767 24.9599 16.1679 24.9387 16.1679 24.9166V16.2492C16.1679 16.2271 16.1767 16.2058 16.1924 16.1902C16.208 16.1746 16.2292 16.1658 16.2514 16.1658H24.9166C24.9387 16.1658 24.9599 16.1746 24.9756 16.1902C24.9912 16.2058 25 16.2271 25 16.2492V24.9166C25 24.9387 24.9912 24.9599 24.9756 24.9756C24.9599 24.9912 24.9387 25 24.9166 25H16.2514Z" stroke="currentColor" stroke-width="2"/>
</svg>
