<svg width="10" height="4" viewBox="0 0 10 4" fill="none" xmlns="http://www.w3.org/2000/svg">
<path d="M9.49971 0.250828L0.499712 0.250828C0.408592 0.25097 0.319274 0.263536 0.241374 0.287172C0.163474 0.310808 0.0999416 0.344619 0.0576146 0.384966C0.0152877 0.425313 -0.00423114 0.470668 0.00116093 0.516148C0.00655204 0.561629 0.036649 0.605513 0.0882123 0.643078L4.58821 3.89308C4.77471 4.02783 5.22371 4.02783 5.41071 3.89308L9.91071 0.643079C9.9628 0.605593 9.99335 0.561686 9.99903 0.51613C10.0047 0.470573 9.98532 0.425109 9.94296 0.384677C9.90059 0.344244 9.83688 0.31039 9.75873 0.286792C9.68059 0.263195 9.591 0.250756 9.49971 0.250828Z" fill="currnetColor"/>
</svg>
