<svg width="201" height="96" viewBox="0 0 201 96" fill="none" xmlns="http://www.w3.org/2000/svg">
<g clip-path="url(#clip0_4031_109)">
<mask id="path-1-inside-1_4031_109" fill="currentColor">
<path d="M0 0L201 0V96H0L0 0Z"/>
</mask>
<path d="M165.312 2.30937C165.591 1.87385 166.206 1.16016 164.961 1.15735C159.277 1.15173 153.593 1.16297 147.909 1.16297C147.527 1.16297 147.279 1.23321 147.031 1.63502C144.926 5.04051 142.773 8.41791 140.631 11.8037C137.298 17.0693 133.967 22.3349 130.63 27.6005C127.572 32.425 124.511 37.2494 121.442 42.0654C120.855 42.9899 120.679 42.9871 120.091 42.0514C117.017 37.1539 113.959 32.248 110.87 27.3589C110.514 26.7941 110.564 26.3642 110.909 25.8416C113.282 22.2506 115.641 18.6541 117.997 15.0519C120.838 10.7079 123.665 6.3527 126.517 2.01434C126.959 1.3428 126.851 1.13206 126.051 1.13487C120.403 1.15454 114.755 1.15735 109.11 1.14892C108.575 1.14892 108.266 1.30346 107.965 1.79237C106.074 4.85226 104.13 7.87843 102.209 10.9186C101.512 12.0201 101.331 12.0285 100.657 10.9524C98.7469 7.90371 96.8224 4.86068 94.9369 1.79518C94.6696 1.36246 94.4133 1.16016 93.9009 1.16016C87.9576 1.16859 82.0143 1.16016 76.0738 1.1433C75.2912 1.1433 75.2856 1.41585 75.6672 1.99467C77.6418 5.00118 79.5997 8.01892 81.5603 11.0367C84.8578 16.1056 88.1498 21.1745 91.4528 26.2406C91.8121 26.7913 91.8594 27.2465 91.464 27.859C88.3948 32.6273 85.3619 37.4236 82.3346 42.22C81.9168 42.8803 81.6216 42.9843 81.1648 42.2453C78.8895 38.5504 76.589 34.8695 74.2913 31.1887C71.4227 26.5946 68.5486 22.0062 65.68 17.4121C62.4382 12.2224 59.188 7.03548 55.9824 1.82327C55.6789 1.32875 55.3697 1.15735 54.8489 1.15735C48.9418 1.16016 43.0375 1.15735 37.1304 1.15173C36.4843 1.15173 36.2058 1.26131 36.6765 1.97781C39.2554 5.91437 41.7898 9.88182 44.3548 13.8324C49.1368 21.1998 53.9326 28.5587 58.7146 35.9232C63.3405 43.0461 67.9414 50.183 72.598 57.2834C73.1383 58.1067 73.3946 58.8991 73.3918 59.8713C73.3751 71.4533 73.3918 83.0326 73.3611 94.6146C73.3611 95.5981 73.6201 95.8818 74.6005 95.8734C79.2877 95.8257 83.975 95.8313 88.6622 95.8734C89.6342 95.8818 89.8988 95.5784 89.8904 94.6006C89.8431 88.6803 89.8681 82.76 89.8681 76.8397H89.8737C89.8737 70.9925 89.8848 65.1481 89.8626 59.3009C89.8598 58.486 90.038 57.8145 90.4948 57.1204C93.77 52.178 97.0006 47.2074 100.245 42.2425C100.98 41.1185 101.075 41.1101 101.788 42.2059C105.105 47.2973 108.417 52.3887 111.72 57.4857C112.096 58.0673 112.419 58.6462 112.416 59.4273C112.385 71.1583 112.402 82.8865 112.363 94.6174C112.36 95.629 112.675 95.8762 113.619 95.8678C118.27 95.8285 122.921 95.8144 127.569 95.8734C128.642 95.8875 128.839 95.5222 128.837 94.5247C128.803 82.7572 128.82 70.9897 128.803 59.2222C128.803 58.5197 128.948 57.9128 129.332 57.334C130.212 56.0049 131.067 54.659 131.939 53.3272C136.924 45.7294 141.921 38.1401 146.895 30.5368C151.582 23.3717 156.247 16.1927 160.923 9.02202C162.382 6.78541 163.867 4.56284 165.307 2.31218L165.312 2.30937Z" fill="currentColor"/>
<path d="M-1.60959 1.13206C-27.7835 1.13206 -49 22.3377 -49 48.4999C-49 74.6621 -27.7835 95.8678 -1.60959 95.8678C24.5643 95.8678 45.7808 74.6593 45.7808 48.4999C45.7808 22.3406 24.5615 1.13206 -1.60959 1.13206ZM-1.79898 80.3155C-18.8769 80.3155 -32.7214 65.8955 -32.7214 48.1094C-32.7214 30.3232 -18.8769 15.9033 -1.79898 15.9033C15.2789 15.9033 29.1234 30.3232 29.1234 48.1094C29.1234 65.8955 15.2789 80.3155 -1.79898 80.3155Z" fill="currentColor"/>
<path d="M203.612 1C177.439 1 156.222 22.2085 156.222 48.3679C156.222 74.5273 177.439 95.7357 203.612 95.7357C229.786 95.7357 251.003 74.5273 251.003 48.3679C251.003 22.2085 229.784 1 203.612 1ZM203.423 80.1834C186.345 80.1834 172.501 65.7634 172.501 47.9773C172.501 30.1912 186.345 15.7712 203.423 15.7712C220.501 15.7712 234.345 30.1912 234.345 47.9773C234.345 65.7634 220.501 80.1834 203.423 80.1834Z" fill="currentColor"/>
</g>
<path d="M1 96V0L-1 0V96H1Z" fill="currentColor" mask="url(#path-1-inside-1_4031_109)"/>
<defs>
<clipPath id="clip0_4031_109">
<path d="M0 0L201 0V96H0L0 0Z" fill="currentColor"/>
</clipPath>
</defs>
</svg>
