<svg width="20" height="20" viewBox="0 0 20 20" fill="none" xmlns="http://www.w3.org/2000/svg">
<g clip-path="url(#clip0_4158_109)">
<path d="M12.8286 14.2425L10.0002 17.0709C9.02199 18.0491 7.84325 18.5382 6.46392 18.5382C5.08459 18.5382 3.90631 18.0491 2.92909 17.0709C1.95092 16.0928 1.46184 14.914 1.46184 13.5347C1.46184 12.1554 1.95092 10.9771 2.92909 9.99987L5.75752 7.17144L7.17173 8.58565L4.3433 11.4141C3.75405 12.0033 3.45942 12.7104 3.45942 13.5354C3.45942 14.3604 3.75405 15.0675 4.3433 15.6567C4.93256 16.246 5.63967 16.5406 6.46462 16.5406C7.28958 16.5406 7.99669 16.246 8.58594 15.6567L11.4144 12.8283L12.8286 14.2425ZM7.87884 13.5354L6.46462 12.1212L12.1215 6.46433L13.5357 7.87855L7.87884 13.5354ZM14.2428 12.8283L12.8286 11.4141L15.657 8.58565C16.2463 7.9964 16.5409 7.28929 16.5409 6.46433C16.5409 5.63938 16.2463 4.93227 15.657 4.34301C15.0678 3.75376 14.3606 3.45913 13.5357 3.45913C12.7107 3.45913 12.0036 3.75376 11.4144 4.34301L8.58594 7.17144L7.17173 5.75723L10.0002 2.9288C10.9783 1.95063 12.1571 1.46155 13.5364 1.46155C14.9157 1.46155 16.094 1.95063 17.0712 2.9288C18.0494 3.90696 18.5385 5.08571 18.5385 6.46504C18.5385 7.84437 18.0494 9.02264 17.0712 9.99987L14.2428 12.8283Z" fill="currentColor"/>
</g>
<defs>
<clipPath id="clip0_4158_109">
<rect width="20" height="20" fill="white"/>
</clipPath>
</defs>
</svg>
