<svg width="52" height="52" viewBox="0 0 52 52" fill="white" xmlns="http://www.w3.org/2000/svg">
<circle cx="26" cy="26" r="26" fill="currentColor"/>
<path d="M34.4678 16.7406C31.4598 17.9862 18.563 23.3284 14.9994 24.7845C12.6095 25.7171 14.0085 26.5914 14.0085 26.5914C14.0085 26.5914 16.0485 27.2908 17.7971 27.8154C19.5458 28.3401 20.4784 27.7571 20.4784 27.7571L28.697 22.2196C31.6113 20.2379 30.9119 21.8699 30.2126 22.5693C28.697 24.0849 26.1906 26.4746 24.0923 28.3982C23.1597 29.2142 23.626 29.9138 24.034 30.2634C25.5496 31.5458 29.6879 34.1687 29.9212 34.3437C31.1526 35.2154 33.5747 36.4703 33.9431 33.819L35.4004 24.6678C35.8667 21.5786 36.333 18.7223 36.3914 17.9063C36.5661 15.9246 34.4678 16.7406 34.4678 16.7406Z" fill="white"/>
</svg>
