<svg width="30" height="30" viewBox="0 0 30 30" fill="none" xmlns="http://www.w3.org/2000/svg">
<path d="M23.4375 8.4375V18.75C23.4375 18.9158 23.3717 19.0747 23.2544 19.1919C23.1372 19.3092 22.9783 19.375 22.8125 19.375C22.6467 19.375 22.4878 19.3092 22.3706 19.1919C22.2533 19.0747 22.1875 18.9158 22.1875 18.75V8.69631L7.62937 23.2544C7.5115 23.3682 7.35362 23.4312 7.18975 23.4298C7.02588 23.4284 6.86912 23.3626 6.75324 23.2468C6.63736 23.1309 6.57163 22.9741 6.5702 22.8103C6.56878 22.6464 6.63178 22.4885 6.74562 22.3706L21.3037 7.8125H11.25C11.0842 7.8125 10.9253 7.74665 10.8081 7.62944C10.6908 7.51223 10.625 7.35326 10.625 7.1875C10.625 7.02174 10.6908 6.86277 10.8081 6.74556C10.9253 6.62835 11.0842 6.5625 11.25 6.5625H21.5625C22.0596 6.56305 22.5362 6.76077 22.8877 7.11228C23.2392 7.46379 23.437 7.94039 23.4375 8.4375Z" fill="currentColor"/>
</svg>
