<svg width="24" height="24" viewBox="0 0 24 24" fill="none" xmlns="http://www.w3.org/2000/svg">
<path d="M21.466 2.7404C18.4581 3.986 5.56125 9.32816 1.99773 10.7842C-0.392192 11.7169 1.00677 12.5912 1.00677 12.5912C1.00677 12.5912 3.04677 13.2906 4.79541 13.8152C6.54405 14.3398 7.47669 13.7569 7.47669 13.7569L15.6952 8.21936C18.6096 6.23768 17.9102 7.86968 17.2108 8.56904C15.6952 10.0846 13.1889 12.4743 11.0906 14.3979C10.158 15.2139 10.6243 15.9135 11.0323 16.2632C12.5479 17.5455 16.6862 20.1685 16.9195 20.3434C18.1509 21.2151 20.573 22.4701 20.9414 19.8188L22.3987 10.6676C22.865 7.57833 23.3313 4.72208 23.3896 3.90608C23.5644 1.9244 21.466 2.7404 21.466 2.7404Z" fill="currentColor"/>
</svg>
