<svg width="20" height="20" viewBox="0 0 20 20" fill="none" xmlns="http://www.w3.org/2000/svg">
<path fill-rule="evenodd" clip-rule="evenodd" d="M2.45953 3.8432L7.86266 9.24867C9.04109 10.4248 10.9674 10.4259 12.1468 9.24867L17.55 3.8432C17.6044 3.78879 17.5964 3.69918 17.5333 3.65516C16.9822 3.27082 16.3117 3.04297 15.5895 3.04297H4.42008C3.69777 3.04297 3.02727 3.27086 2.47617 3.65516C2.41305 3.69918 2.40512 3.78879 2.45953 3.8432ZM1.01562 6.44738C1.01562 5.87941 1.15645 5.34277 1.40449 4.87109C1.44328 4.7973 1.5416 4.78238 1.60055 4.84133L6.93527 10.1761C8.62461 11.8679 11.3839 11.8688 13.0743 10.1761L18.409 4.84133C18.4679 4.78238 18.5662 4.7973 18.605 4.87109C18.853 5.34277 18.9939 5.87945 18.9939 6.44738V13.5543C18.9939 15.4329 17.4657 16.9588 15.5895 16.9588H4.42008C2.54383 16.9588 1.01562 15.4329 1.01562 13.5543V6.44738Z" fill="currentColor"/>
</svg>
