<svg width="27" height="27" viewBox="0 0 27 27" fill="none" xmlns="http://www.w3.org/2000/svg">
  <g clip-path="url(#clip0_10_8236)">
    <path d="M5.90661 7.45718C5.90661 5.79378 7.25999 4.4404 8.92359 4.4404C10.587 4.4404 11.9406 5.79378 11.9406 7.45718V9.88852C12.7786 9.63226 13.3902 8.85175 13.3902 7.93076V2.04675C13.3902 0.918114 12.4718 0 11.3432 0H6.50399C5.37535 0 4.45703 0.918114 4.45703 2.04675V7.93076C4.45703 8.85175 5.06842 9.63226 5.90661 9.88852V7.45718Z" fill="#D97C7C" />
    <path d="M21.3744 0H16.535C15.4064 0 14.4883 0.918114 14.4883 2.04675V7.93076C14.4883 9.05939 15.4064 9.97751 16.535 9.97751H21.3744C22.5031 9.97751 23.4214 9.05939 23.4214 7.93076V2.04675C23.4214 0.918114 22.5031 0 21.3744 0Z" fill="#D97C7C" />
    <path d="M17.6244 12.7166C16.8233 12.7166 16.1742 13.3659 16.1742 14.1668V13.4281C16.1742 12.6272 15.525 11.9779 14.7238 11.9779C13.9229 11.9779 13.2736 12.627 13.2736 13.4281V12.8068C13.2736 12.045 12.6864 11.4211 11.94 11.3616C11.9015 11.3587 11.8628 11.3566 11.8235 11.3566C11.2388 11.3566 10.7354 11.7029 10.5059 12.2012C10.421 12.3856 10.3733 12.5905 10.3733 12.8068V7.45715C10.3733 6.65625 9.72397 6.00696 8.92306 6.00696C8.12216 6.00696 7.47287 6.65625 7.47287 7.45715V19.9074L7.41004 19.8994L6.51664 16.0753C6.33434 15.2954 5.55424 14.8107 4.77435 14.993C3.95532 14.993 3.43766 15.6456 3.62388 16.4432L4.65982 20.8768C5.20158 24.3458 8.00577 27 8.00577 27H16.8165C18.2888 24.7608 19.0734 22.1398 19.0738 19.4598L19.0746 14.1668C19.0746 13.3659 18.4253 12.7166 17.6244 12.7166Z" fill="#D97C7C" />
  </g>
  <defs>
    <clipPath id="clip0_10_8236">
      <rect width="27" height="27" fill="white" />
    </clipPath>
  </defs>
</svg>