<svg width="28" height="29" viewBox="0 0 28 29" fill="none" xmlns="http://www.w3.org/2000/svg">
<g clip-path="url(#clip0_1_209)">
<path d="M25.325 8.97382L22.422 6.07178V3.62462C22.422 2.33322 21.3704 1.28491 20.0815 1.28491H3.99741C2.70558 1.28491 1.65692 2.33327 1.65692 3.62462V23.3795C1.65692 24.6681 2.70563 25.7192 3.99741 25.7192H4.66453V26.324C4.66453 27.5532 5.66515 28.5535 6.89479 28.5535H23.1992C24.0275 28.5535 24.7822 28.0986 25.1694 27.3667C25.2599 27.1943 25.1949 26.9823 25.0224 26.8891C24.8528 26.7987 24.6352 26.8636 24.5447 27.036C24.2818 27.5362 23.7645 27.8471 23.1992 27.8471H6.89479C6.05242 27.8471 5.37121 27.1632 5.37121 26.324V6.34869C5.37121 5.5066 6.05242 4.82561 6.89479 4.82561H19.9683V8.19396C19.9683 8.95689 20.5902 9.57855 21.3535 9.57855H24.7229V17.3239C24.7229 17.5189 24.8812 17.6772 25.0762 17.6772C25.2712 17.6772 25.4296 17.5189 25.4296 17.3239V9.22533C25.4296 9.14617 25.39 9.03883 25.325 8.97382ZM21.7153 5.36533L20.5704 4.22088C20.5083 4.15871 20.3952 4.11916 20.3217 4.11916H6.89479C5.6652 4.11916 4.66453 5.11951 4.66453 6.34869V25.0129H3.99741C3.0957 25.0129 2.3636 24.2782 2.3636 23.3796V3.62462C2.3636 2.72321 3.0957 1.99136 3.99741 1.99136H20.0814C20.9803 1.99136 21.7152 2.72321 21.7152 3.62462V5.36533H21.7153Z" fill="#CF0713"/>
<path d="M13.4716 6.84824C13.4716 6.65295 13.3134 6.49463 13.1182 6.49463H7.8336C7.63846 6.49463 7.48026 6.65295 7.48026 6.84824C7.48026 7.04353 7.63846 7.20185 7.8336 7.20185H13.1182C13.3134 7.20185 13.4716 7.04358 13.4716 6.84824Z" fill="#CF0713"/>
<path d="M7.83366 8.35059C7.63852 8.35059 7.48032 8.50891 7.48032 8.7042C7.48032 8.89948 7.63852 9.05781 7.83366 9.05781H10.476C10.6711 9.05781 10.8293 8.89948 10.8293 8.7042C10.8293 8.50891 10.6711 8.35059 10.476 8.35059H7.83366Z" fill="#CF0713"/>
<path d="M25.3589 18.3835H13.1475C12.6161 18.3835 12.1836 18.813 12.1836 19.3443V25.1767C12.1836 25.7108 12.6161 26.1402 13.1475 26.1402H25.3589C25.8903 26.1402 26.3228 25.7108 26.3228 25.1767V19.3443C26.3228 18.8131 25.8903 18.3835 25.3589 18.3835ZM15.6209 23.1252L15.1262 23.1365V23.8655C15.1262 24.0605 14.9679 24.2188 14.7729 24.2188C14.5779 24.2188 14.4195 24.0605 14.4195 23.8655V22.7889C14.4195 22.7889 14.4195 22.7889 14.4195 22.7861V20.6583C14.4195 20.4633 14.5779 20.3051 14.7729 20.3051H15.5955C16.3728 20.3051 17.006 20.938 17.006 21.7151C17.0059 22.4809 16.3841 23.1111 15.6209 23.1252ZM18.945 24.2159H18.1055C17.9105 24.2159 17.7522 24.0577 17.7522 23.8627V20.6583C17.7522 20.4633 17.9105 20.3051 18.1055 20.3051H18.945C20.0249 20.3051 20.9012 21.1839 20.9012 22.2605C20.9012 23.3399 20.0249 24.2159 18.945 24.2159ZM23.7307 21.0115H22.3795V22.0684H23.4508C23.6459 22.0684 23.8042 22.2266 23.8042 22.4216C23.8042 22.6165 23.6459 22.7748 23.4508 22.7748H22.3795V23.8655C22.3795 24.0605 22.2212 24.2188 22.0262 24.2188C21.8311 24.2188 21.6728 24.0605 21.6728 23.8655V20.6583C21.6728 20.4633 21.8311 20.3051 22.0262 20.3051H23.7307C23.9257 20.3051 24.084 20.4633 24.084 20.6583C24.084 20.8533 23.9258 21.0115 23.7307 21.0115Z" fill="#CF0713"/>
<path d="M16.3001 21.7151C16.3001 22.0966 15.989 22.4131 15.6071 22.4187L15.1262 22.4272V21.0115H15.5958C15.9833 21.0115 16.3001 21.328 16.3001 21.7151Z" fill="#CF0713"/>
<path d="M20.1945 22.2604C20.1945 22.9499 19.6348 23.5094 18.945 23.5094H18.4589V21.0115H18.945C19.6348 21.0115 20.1945 21.5738 20.1945 22.2604Z" fill="#CF0713"/>
</g>
<defs>
<clipPath id="clip0_1_209">
<rect width="27.9787" height="27.9694" fill="white" transform="translate(0.000488281 0.93457)"/>
</clipPath>
</defs>
</svg>
