<svg aria-hidden="true" xmlns="http://www.w3.org/2000/svg" xmlns:xlink="http://www.w3.org/1999/xlink"><symbol viewBox="0 0 30 30" fill="none" id="icon-arrow-rotate" xmlns="http://www.w3.org/2000/svg">
<path d="M23.4375 8.4375V18.75C23.4375 18.9158 23.3717 19.0747 23.2544 19.1919C23.1372 19.3092 22.9783 19.375 22.8125 19.375C22.6467 19.375 22.4878 19.3092 22.3706 19.1919C22.2533 19.0747 22.1875 18.9158 22.1875 18.75V8.69631L7.62937 23.2544C7.5115 23.3682 7.35362 23.4312 7.18975 23.4298C7.02588 23.4284 6.86912 23.3626 6.75324 23.2468C6.63736 23.1309 6.57163 22.9741 6.5702 22.8103C6.56878 22.6464 6.63178 22.4885 6.74562 22.3706L21.3037 7.8125H11.25C11.0842 7.8125 10.9253 7.74665 10.8081 7.62944C10.6908 7.51223 10.625 7.35326 10.625 7.1875C10.625 7.02174 10.6908 6.86277 10.8081 6.74556C10.9253 6.62835 11.0842 6.5625 11.25 6.5625H21.5625C22.0596 6.56305 22.5362 6.76077 22.8877 7.11228C23.2392 7.46379 23.437 7.94039 23.4375 8.4375Z" fill="currentColor"/>
</symbol><symbol viewBox="0 0 42 42" fill="none" id="icon-close" xmlns="http://www.w3.org/2000/svg">
<path d="M21 2.625C10.7625 2.625 2.625 10.7625 2.625 21C2.625 31.2375 10.7625 39.375 21 39.375C31.2375 39.375 39.375 31.2375 39.375 21C39.375 10.7625 31.2375 2.625 21 2.625ZM28.0875 30.1875L21 23.1L13.9125 30.1875L11.8125 28.0875L18.9 21L11.8125 13.9125L13.9125 11.8125L21 18.9L28.0875 11.8125L30.1875 13.9125L23.1 21L30.1875 28.0875L28.0875 30.1875Z" fill="currentColor"/>
</symbol><symbol viewBox="0 0 52 52" id="icon-dzen" xmlns="http://www.w3.org/2000/svg">
<circle cx="26" cy="26" r="26" fill="currentColor"/>
<g clip-path="url(#cclip0_4007_7)">
<path d="M26 41C26 32.7158 32.7158 26 41 26C32.7158 26 26 19.2857 26 11C26 19.2842 19.2842 26 11 26C19.2842 26 26 32.7143 26 41Z" fill="currentColor"/>
</g>
<defs>
<clipPath id="cclip0_4007_7">
<rect width="30" height="30" fill="currentColor" transform="translate(11 11)"/>
</clipPath>
</defs>
</symbol><symbol viewBox="0 0 201 96" fill="none" id="icon-logo" xmlns="http://www.w3.org/2000/svg">
<g clip-path="url(#dclip0_4031_109)">
<mask id="dpath-1-inside-1_4031_109" fill="currentColor">
<path d="M0 0L201 0V96H0L0 0Z"/>
</mask>
<path d="M165.312 2.30937C165.591 1.87385 166.206 1.16016 164.961 1.15735C159.277 1.15173 153.593 1.16297 147.909 1.16297C147.527 1.16297 147.279 1.23321 147.031 1.63502C144.926 5.04051 142.773 8.41791 140.631 11.8037C137.298 17.0693 133.967 22.3349 130.63 27.6005C127.572 32.425 124.511 37.2494 121.442 42.0654C120.855 42.9899 120.679 42.9871 120.091 42.0514C117.017 37.1539 113.959 32.248 110.87 27.3589C110.514 26.7941 110.564 26.3642 110.909 25.8416C113.282 22.2506 115.641 18.6541 117.997 15.0519C120.838 10.7079 123.665 6.3527 126.517 2.01434C126.959 1.3428 126.851 1.13206 126.051 1.13487C120.403 1.15454 114.755 1.15735 109.11 1.14892C108.575 1.14892 108.266 1.30346 107.965 1.79237C106.074 4.85226 104.13 7.87843 102.209 10.9186C101.512 12.0201 101.331 12.0285 100.657 10.9524C98.7469 7.90371 96.8224 4.86068 94.9369 1.79518C94.6696 1.36246 94.4133 1.16016 93.9009 1.16016C87.9576 1.16859 82.0143 1.16016 76.0738 1.1433C75.2912 1.1433 75.2856 1.41585 75.6672 1.99467C77.6418 5.00118 79.5997 8.01892 81.5603 11.0367C84.8578 16.1056 88.1498 21.1745 91.4528 26.2406C91.8121 26.7913 91.8594 27.2465 91.464 27.859C88.3948 32.6273 85.3619 37.4236 82.3346 42.22C81.9168 42.8803 81.6216 42.9843 81.1648 42.2453C78.8895 38.5504 76.589 34.8695 74.2913 31.1887C71.4227 26.5946 68.5486 22.0062 65.68 17.4121C62.4382 12.2224 59.188 7.03548 55.9824 1.82327C55.6789 1.32875 55.3697 1.15735 54.8489 1.15735C48.9418 1.16016 43.0375 1.15735 37.1304 1.15173C36.4843 1.15173 36.2058 1.26131 36.6765 1.97781C39.2554 5.91437 41.7898 9.88182 44.3548 13.8324C49.1368 21.1998 53.9326 28.5587 58.7146 35.9232C63.3405 43.0461 67.9414 50.183 72.598 57.2834C73.1383 58.1067 73.3946 58.8991 73.3918 59.8713C73.3751 71.4533 73.3918 83.0326 73.3611 94.6146C73.3611 95.5981 73.6201 95.8818 74.6005 95.8734C79.2877 95.8257 83.975 95.8313 88.6622 95.8734C89.6342 95.8818 89.8988 95.5784 89.8904 94.6006C89.8431 88.6803 89.8681 82.76 89.8681 76.8397H89.8737C89.8737 70.9925 89.8848 65.1481 89.8626 59.3009C89.8598 58.486 90.038 57.8145 90.4948 57.1204C93.77 52.178 97.0006 47.2074 100.245 42.2425C100.98 41.1185 101.075 41.1101 101.788 42.2059C105.105 47.2973 108.417 52.3887 111.72 57.4857C112.096 58.0673 112.419 58.6462 112.416 59.4273C112.385 71.1583 112.402 82.8865 112.363 94.6174C112.36 95.629 112.675 95.8762 113.619 95.8678C118.27 95.8285 122.921 95.8144 127.569 95.8734C128.642 95.8875 128.839 95.5222 128.837 94.5247C128.803 82.7572 128.82 70.9897 128.803 59.2222C128.803 58.5197 128.948 57.9128 129.332 57.334C130.212 56.0049 131.067 54.659 131.939 53.3272C136.924 45.7294 141.921 38.1401 146.895 30.5368C151.582 23.3717 156.247 16.1927 160.923 9.02202C162.382 6.78541 163.867 4.56284 165.307 2.31218L165.312 2.30937Z" fill="currentColor"/>
<path d="M-1.60959 1.13206C-27.7835 1.13206 -49 22.3377 -49 48.4999C-49 74.6621 -27.7835 95.8678 -1.60959 95.8678C24.5643 95.8678 45.7808 74.6593 45.7808 48.4999C45.7808 22.3406 24.5615 1.13206 -1.60959 1.13206ZM-1.79898 80.3155C-18.8769 80.3155 -32.7214 65.8955 -32.7214 48.1094C-32.7214 30.3232 -18.8769 15.9033 -1.79898 15.9033C15.2789 15.9033 29.1234 30.3232 29.1234 48.1094C29.1234 65.8955 15.2789 80.3155 -1.79898 80.3155Z" fill="currentColor"/>
<path d="M203.612 1C177.439 1 156.222 22.2085 156.222 48.3679C156.222 74.5273 177.439 95.7357 203.612 95.7357C229.786 95.7357 251.003 74.5273 251.003 48.3679C251.003 22.2085 229.784 1 203.612 1ZM203.423 80.1834C186.345 80.1834 172.501 65.7634 172.501 47.9773C172.501 30.1912 186.345 15.7712 203.423 15.7712C220.501 15.7712 234.345 30.1912 234.345 47.9773C234.345 65.7634 220.501 80.1834 203.423 80.1834Z" fill="currentColor"/>
</g>
<path d="M1 96V0L-1 0V96H1Z" fill="currentColor" mask="url(#dpath-1-inside-1_4031_109)"/>
<defs>
<clipPath id="dclip0_4031_109">
<path d="M0 0L201 0V96H0L0 0Z" fill="currentColor"/>
</clipPath>
</defs>
</symbol><symbol viewBox="0 0 26 26" fill="none" id="icon-menu" xmlns="http://www.w3.org/2000/svg">
<path d="M1.08342 9.83207C1.0613 9.83207 1.04008 9.82328 1.02443 9.80764C1.00879 9.79199 1 9.77077 1 9.74865V1.08342C1 1.0613 1.00879 1.04008 1.02443 1.02443L0.317328 0.317328L1.02443 1.02443C1.04008 1.00879 1.0613 1 1.08342 1H9.75081C9.77294 1 9.79416 1.00879 9.8098 1.02443C9.82545 1.04008 9.83424 1.0613 9.83424 1.08342V9.74865C9.83424 9.77077 9.82545 9.79199 9.8098 9.80764C9.79416 9.82328 9.77294 9.83207 9.75081 9.83207H1.08342ZM16.2514 9.83207C16.2292 9.83207 16.208 9.82328 16.1924 9.80764C16.1767 9.79199 16.1679 9.77077 16.1679 9.74865V1.08342C16.1679 1.0613 16.1767 1.04008 16.1924 1.02443C16.208 1.00879 16.2292 1 16.2514 1H24.9166C24.9387 1 24.9599 1.00879 24.9756 1.02444C24.9912 1.04008 25 1.0613 25 1.08342V9.74865C25 9.77077 24.9912 9.79199 24.9756 9.80764C24.9599 9.82328 24.9387 9.83207 24.9166 9.83207H16.2514ZM1.08342 25C1.0613 25 1.04008 24.9912 1.02444 24.9756L0.320262 25.6797L1.02443 24.9756C1.00879 24.9599 1 24.9387 1 24.9166V16.2492C1 16.2271 1.00879 16.2058 1.02443 16.1902C1.04008 16.1746 1.0613 16.1658 1.08342 16.1658H9.75081C9.77294 16.1658 9.79416 16.1746 9.8098 16.1902C9.82545 16.2058 9.83424 16.2271 9.83424 16.2492V24.9166C9.83424 24.9387 9.82545 24.9599 9.8098 24.9756C9.79416 24.9912 9.77294 25 9.75081 25H1.08342ZM16.2514 25C16.2292 25 16.208 24.9912 16.1924 24.9756C16.1767 24.9599 16.1679 24.9387 16.1679 24.9166V16.2492C16.1679 16.2271 16.1767 16.2058 16.1924 16.1902C16.208 16.1746 16.2292 16.1658 16.2514 16.1658H24.9166C24.9387 16.1658 24.9599 16.1746 24.9756 16.1902C24.9912 16.2058 25 16.2271 25 16.2492V24.9166C25 24.9387 24.9912 24.9599 24.9756 24.9756C24.9599 24.9912 24.9387 25 24.9166 25H16.2514Z" stroke="currentColor" stroke-width="2"/>
</symbol><symbol viewBox="0 0 25 38" fill="none" id="icon-mouse" xmlns="http://www.w3.org/2000/svg">
<rect x="0.502197" y="0.5" width="24" height="37" rx="12" stroke="currentColor"/>
<rect x="11.0022" y="7" width="3" height="7" rx="1.5" fill="currentColor"/>
</symbol><symbol viewBox="0 0 24 24" fill="none" id="icon-plus" xmlns="http://www.w3.org/2000/svg">
<rect y="11" width="24" height="2" fill="currentColor"/>
<rect x="11" y="24" width="24" height="2" transform="rotate(-90 11 24)" fill="currentColor"/>
</symbol><symbol viewBox="0 0 52 52" fill="currentColor" id="icon-tel" xmlns="http://www.w3.org/2000/svg">
<circle cx="26" cy="26" r="26" fill="currentColor"/>
<path d="M20.9207 35.1856C22.4288 36.021 24.1608 36.5 26.0051 36.5C31.8028 36.5 36.5001 31.7926 36.5001 25.9949C36.5001 20.1972 31.8028 15.5 26.0051 15.5C20.2074 15.5 15.5 20.1972 15.5 25.9949C15.5 27.8595 15.9891 29.5917 16.8348 31.1099L15.5 36.5L20.9207 35.1856ZM21.5015 21.3588C21.746 21.1244 22.1027 21.0327 22.4288 21.1041L22.7649 21.1754C23.1012 21.2467 23.3763 21.4709 23.5088 21.7765L24.1711 23.2438C24.3341 23.6004 24.273 24.0284 24.008 24.3238L23.6004 24.8028C23.468 24.9556 23.4375 25.1899 23.5393 25.3734C24.7417 27.5335 26.321 28.2365 27.024 28.4504C27.2278 28.5218 27.4622 28.4301 27.5743 28.2466L27.8698 27.7882C28.1551 27.3501 28.7155 27.1972 29.337 27.5029L30.5597 28.1143C31.0284 28.3384 31.2424 28.8886 31.0692 29.3777C30.4477 31.1811 28.8581 30.957 28.8581 30.957C25.3327 30.8653 22.5713 27.6149 21.3792 25.944C20.829 25.1594 20.4928 24.2118 20.5946 23.2438C20.6966 22.286 21.1449 21.6848 21.5015 21.3588Z" fill="currentColor"/>
</symbol><symbol viewBox="0 0 52 52" fill="currentColor" id="icon-tg" xmlns="http://www.w3.org/2000/svg">
<circle cx="26" cy="26" r="26" fill="currentColor"/>
<path d="M34.4678 16.7406C31.4598 17.9862 18.563 23.3284 14.9994 24.7845C12.6095 25.7171 14.0085 26.5914 14.0085 26.5914C14.0085 26.5914 16.0485 27.2908 17.7971 27.8154C19.5458 28.3401 20.4784 27.7571 20.4784 27.7571L28.697 22.2196C31.6113 20.2379 30.9119 21.8699 30.2126 22.5693C28.697 24.0849 26.1906 26.4746 24.0923 28.3982C23.1597 29.2142 23.626 29.9138 24.034 30.2634C25.5496 31.5458 29.6879 34.1687 29.9212 34.3437C31.1526 35.2154 33.5747 36.4703 33.9431 33.819L35.4004 24.6678C35.8667 21.5786 36.333 18.7223 36.3914 17.9063C36.5661 15.9246 34.4678 16.7406 34.4678 16.7406Z" fill="currentColor"/>
</symbol><symbol viewBox="0 0 52 52" fill="none" id="icon-yt" xmlns="http://www.w3.org/2000/svg">
<circle cx="26" cy="26" r="26" fill="currentColor"/>
<g clip-path="url(#jclip0_1_1852)">
<path fill-rule="evenodd" clip-rule="evenodd" d="M36.5958 18.6904C36.111 18.2503 35.4972 17.9618 34.8258 17.8876C33.3666 17.7243 31.8941 17.6421 30.4167 17.6008C28.9489 17.5598 27.4747 17.5598 26.0038 17.5608C24.5332 17.5598 23.0592 17.5598 21.591 17.6008C20.1135 17.6421 18.6406 17.7243 17.1806 17.8876C16.5098 17.9618 15.8963 18.2504 15.412 18.6907C14.9309 19.128 14.5773 19.7155 14.4226 20.3907C14.2138 21.2958 14.1083 22.24 14.0549 23.1903C14.0013 24.1444 14 25.0865 14 26.0012C14 26.9145 14 27.8555 14.0522 28.8102C14.1043 29.76 14.2087 30.7043 14.4176 31.6095C14.5731 32.285 14.9269 32.8727 15.408 33.3099C15.892 33.7499 16.505 34.0384 17.1755 34.1126C18.6358 34.2759 20.1086 34.3582 21.5861 34.3993C23.0542 34.4403 24.5283 34.4403 25.9992 34.4394C27.4707 34.4403 28.9448 34.4403 30.4126 34.3993C31.8899 34.3582 33.3624 34.2759 34.8224 34.1126C35.4929 34.0384 36.1057 33.7499 36.5899 33.3101C37.0712 32.8729 37.4255 32.2852 37.5821 31.6095C37.7901 30.7043 37.8943 29.76 37.9467 28.8102C37.9982 27.8737 37.9986 26.9235 37.9986 26.0012H37.9995V25.9549H37.9986C37.9986 24.1221 37.9986 22.1812 37.5871 20.3907C37.4316 19.7151 37.0775 19.1277 36.5958 18.6904Z" fill="currentColor"/>
<path fill-rule="evenodd" clip-rule="evenodd" d="M30.5537 25.5494C29.1864 24.8354 27.8284 24.1268 26.4719 23.419C25.3442 22.8305 24.2177 22.2427 23.0878 21.6528L22.7148 21.458V21.8782V29.6452V30.0644L23.0869 29.8717C24.3347 29.2253 25.5773 28.5813 26.8197 27.937L30.5527 26.0012L30.9873 25.7759L30.5537 25.5494Z" fill="currentColor"/>
</g>
<defs>
<clipPath id="jclip0_1_1852">
<rect width="24" height="24" fill="currentColor" transform="translate(14 14)"/>
</clipPath>
</defs>
</symbol></svg>