<svg aria-hidden="true" xmlns="http://www.w3.org/2000/svg" xmlns:xlink="http://www.w3.org/1999/xlink"><symbol viewBox="0 0 52 52" id="icon-dzen" xmlns="http://www.w3.org/2000/svg">
<circle cx="26" cy="26" r="26" fill="currentColor"/>
<g clip-path="url(#aclip0_4007_7)">
<path d="M26 41C26 32.7158 32.7158 26 41 26C32.7158 26 26 19.2857 26 11C26 19.2842 19.2842 26 11 26C19.2842 26 26 32.7143 26 41Z" fill="currentColor"/>
</g>
<defs>
<clipPath id="aclip0_4007_7">
<rect width="30" height="30" fill="currentColor" transform="translate(11 11)"/>
</clipPath>
</defs>
</symbol><symbol viewBox="0 0 52 52" fill="currentColor" id="icon-tel" xmlns="http://www.w3.org/2000/svg">
<circle cx="26" cy="26" r="26" fill="currentColor"/>
<path d="M20.9207 35.1856C22.4288 36.021 24.1608 36.5 26.0051 36.5C31.8028 36.5 36.5001 31.7926 36.5001 25.9949C36.5001 20.1972 31.8028 15.5 26.0051 15.5C20.2074 15.5 15.5 20.1972 15.5 25.9949C15.5 27.8595 15.9891 29.5917 16.8348 31.1099L15.5 36.5L20.9207 35.1856ZM21.5015 21.3588C21.746 21.1244 22.1027 21.0327 22.4288 21.1041L22.7649 21.1754C23.1012 21.2467 23.3763 21.4709 23.5088 21.7765L24.1711 23.2438C24.3341 23.6004 24.273 24.0284 24.008 24.3238L23.6004 24.8028C23.468 24.9556 23.4375 25.1899 23.5393 25.3734C24.7417 27.5335 26.321 28.2365 27.024 28.4504C27.2278 28.5218 27.4622 28.4301 27.5743 28.2466L27.8698 27.7882C28.1551 27.3501 28.7155 27.1972 29.337 27.5029L30.5597 28.1143C31.0284 28.3384 31.2424 28.8886 31.0692 29.3777C30.4477 31.1811 28.8581 30.957 28.8581 30.957C25.3327 30.8653 22.5713 27.6149 21.3792 25.944C20.829 25.1594 20.4928 24.2118 20.5946 23.2438C20.6966 22.286 21.1449 21.6848 21.5015 21.3588Z" fill="currentColor"/>
</symbol><symbol viewBox="0 0 52 52" fill="currentColor" id="icon-tg" xmlns="http://www.w3.org/2000/svg">
<circle cx="26" cy="26" r="26" fill="currentColor"/>
<path d="M34.4678 16.7406C31.4598 17.9862 18.563 23.3284 14.9994 24.7845C12.6095 25.7171 14.0085 26.5914 14.0085 26.5914C14.0085 26.5914 16.0485 27.2908 17.7971 27.8154C19.5458 28.3401 20.4784 27.7571 20.4784 27.7571L28.697 22.2196C31.6113 20.2379 30.9119 21.8699 30.2126 22.5693C28.697 24.0849 26.1906 26.4746 24.0923 28.3982C23.1597 29.2142 23.626 29.9138 24.034 30.2634C25.5496 31.5458 29.6879 34.1687 29.9212 34.3437C31.1526 35.2154 33.5747 36.4703 33.9431 33.819L35.4004 24.6678C35.8667 21.5786 36.333 18.7223 36.3914 17.9063C36.5661 15.9246 34.4678 16.7406 34.4678 16.7406Z" fill="currentColor"/>
</symbol><symbol viewBox="0 0 52 52" fill="currentColor" id="icon-yt" xmlns="http://www.w3.org/2000/svg">
<circle cx="26" cy="26" r="26" fill="currentColor"/>
<g clip-path="url(#dclip0_4005_5)">
<path fill-rule="evenodd" clip-rule="evenodd" d="M36.5958 18.6904C36.111 18.2503 35.4972 17.9618 34.8258 17.8876C33.3666 17.7243 31.8941 17.6421 30.4167 17.6008C28.9489 17.5598 27.4747 17.5598 26.0038 17.5608C24.5332 17.5598 23.0592 17.5598 21.591 17.6008C20.1135 17.6421 18.6406 17.7243 17.1806 17.8876C16.5098 17.9618 15.8963 18.2504 15.412 18.6907C14.9309 19.128 14.5773 19.7155 14.4226 20.3907C14.2138 21.2958 14.1083 22.24 14.0549 23.1903C14.0013 24.1444 14 25.0865 14 26.0012C14 26.9145 14 27.8555 14.0522 28.8102C14.1043 29.76 14.2087 30.7043 14.4176 31.6095C14.5731 32.285 14.9269 32.8727 15.408 33.3099C15.892 33.7499 16.505 34.0384 17.1755 34.1126C18.6358 34.2759 20.1086 34.3582 21.5861 34.3993C23.0542 34.4403 24.5283 34.4403 25.9992 34.4394C27.4707 34.4403 28.9448 34.4403 30.4126 34.3993C31.8899 34.3582 33.3624 34.2759 34.8224 34.1126C35.4929 34.0384 36.1057 33.7499 36.5899 33.3101C37.0712 32.8729 37.4255 32.2852 37.5821 31.6095C37.7901 30.7043 37.8943 29.76 37.9467 28.8102C37.9982 27.8737 37.9986 26.9235 37.9986 26.0012H37.9995V25.9549H37.9986C37.9986 24.1221 37.9986 22.1812 37.5871 20.3907C37.4316 19.7151 37.0775 19.1277 36.5958 18.6904Z" fill="currentColor"/>
<path fill-rule="evenodd" clip-rule="evenodd" d="M30.5537 25.5494C29.1864 24.8354 27.8284 24.1268 26.4719 23.419C25.3442 22.8305 24.2177 22.2427 23.0878 21.6528L22.7148 21.458V21.8782V29.6452V30.0644L23.0869 29.8717C24.3347 29.2253 25.5773 28.5813 26.8197 27.937L30.5527 26.0012L30.9873 25.7759L30.5537 25.5494Z" fill="currentColor"/>
</g>
<defs>
<clipPath id="dclip0_4005_5">
<rect width="24" height="24" fill="currentColor" transform="translate(14 14)"/>
</clipPath>
</defs>
</symbol></svg>