<svg width="131" height="53" viewBox="0 0 131 53" fill="none" xmlns="http://www.w3.org/2000/svg">
<g clip-path="url(#clip0_4001_2)">
<path d="M93.5831 0.566796C93.7047 0.378261 93.9735 0.0693087 93.4298 0.0680924C90.9477 0.0656597 88.4656 0.0705251 85.9834 0.0705251C85.8168 0.0705251 85.7086 0.100934 85.6003 0.274872C84.6809 1.74909 83.7409 3.21114 82.8057 4.67684C81.3499 6.95628 79.8954 9.23572 78.4385 11.5152C77.1032 13.6036 75.7666 15.6921 74.4265 17.7769C74.1699 18.1771 74.0932 18.1759 73.8366 17.7708C72.494 15.6507 71.1587 13.527 69.81 11.4106C69.6543 11.1661 69.6762 10.98 69.827 10.7537C70.8632 9.19923 71.8932 7.6423 72.9221 6.08294C74.1626 4.20246 75.3969 2.31712 76.6423 0.439079C76.8356 0.148371 76.7882 0.0571452 76.4392 0.0583616C73.9728 0.066876 71.5065 0.0680924 69.0414 0.0644433C68.8079 0.0644433 68.6729 0.131343 68.5416 0.342987C67.7158 1.66759 66.8669 2.9776 66.0278 4.29369C65.7238 4.7705 65.6447 4.77415 65.3504 4.30829C64.5161 2.98855 63.6758 1.67124 62.8525 0.344204C62.7357 0.156886 62.6238 0.0693087 62.4001 0.0693087C59.8048 0.0729578 57.2096 0.0693087 54.6156 0.0620106C54.2738 0.0620106 54.2714 0.179997 54.438 0.430565C55.3003 1.73206 56.1552 3.03842 57.0114 4.34478C58.4513 6.53907 59.8887 8.73337 61.3311 10.9264C61.488 11.1648 61.5086 11.3619 61.3359 11.6271C59.9958 13.6912 58.6714 15.7675 57.3494 17.8438C57.167 18.1297 57.0381 18.1747 56.8387 17.8548C55.8451 16.2553 54.8406 14.6619 53.8372 13.0684C52.5846 11.0797 51.3296 9.09341 50.0769 7.10467C48.6614 4.85808 47.2421 2.6127 45.8423 0.356367C45.7098 0.14229 45.5748 0.0680924 45.3474 0.0680924C42.7679 0.0693087 40.1897 0.0680924 37.6103 0.0656597C37.3282 0.0656597 37.2065 0.113097 37.4121 0.423266C38.5382 2.12737 39.6449 3.84486 40.765 5.55505C42.8531 8.74431 44.9473 11.9299 47.0354 15.118C49.0554 18.2014 51.0644 21.291 53.0978 24.3647C53.3338 24.7211 53.4456 25.0641 53.4444 25.4849C53.4371 30.4987 53.4444 35.5113 53.431 40.5251C53.431 40.9508 53.5441 41.0737 53.9722 41.07C56.019 41.0493 58.0658 41.0518 60.1125 41.07C60.5369 41.0737 60.6525 40.9423 60.6488 40.519C60.6282 37.9562 60.6391 35.3933 60.6391 32.8305H60.6415C60.6415 30.2992 60.6464 27.7692 60.6367 25.238C60.6355 24.8853 60.7133 24.5946 60.9127 24.2941C62.3429 22.1546 63.7536 20.0028 65.1704 17.8536C65.4915 17.367 65.5328 17.3634 65.8442 17.8377C67.2926 20.0418 68.7386 22.2458 70.1809 24.4523C70.3451 24.704 70.4862 24.9546 70.485 25.2927C70.4716 30.371 70.4789 35.4481 70.4619 40.5263C70.4606 40.9642 70.5981 41.0712 71.0103 41.0676C73.0413 41.0506 75.0722 41.0445 77.102 41.07C77.5702 41.0761 77.6565 40.918 77.6553 40.4862C77.6407 35.3921 77.648 30.298 77.6407 25.204C77.6407 24.8999 77.704 24.6371 77.8718 24.3866C78.2561 23.8112 78.6294 23.2286 79.0101 22.6521C81.187 19.363 83.3687 16.0777 85.5408 12.7862C87.5875 9.68455 89.6245 6.57678 91.6664 3.47265C92.3037 2.50444 92.9519 1.54231 93.5806 0.568012L93.5831 0.566796Z" fill="white"/>
<path d="M20.6938 0.0571289C9.26454 0.0571289 0 9.23692 0 20.5623C0 31.8878 9.26454 41.0676 20.6938 41.0676C32.1231 41.0676 41.3876 31.8866 41.3876 20.5623C41.3876 9.23814 32.1219 0.0571289 20.6938 0.0571289ZM20.6111 34.3351C13.1538 34.3351 7.10833 28.0928 7.10833 20.3933C7.10833 12.6938 13.1538 6.45148 20.6111 6.45148C28.0685 6.45148 34.1139 12.6938 34.1139 20.3933C34.1139 28.0928 28.0685 34.3351 20.6111 34.3351Z" fill="white"/>
<path d="M110.307 0C98.8781 0 89.6135 9.18101 89.6135 20.5052C89.6135 31.8294 98.8781 41.0104 110.307 41.0104C121.737 41.0104 131.001 31.8294 131.001 20.5052C131.001 9.18101 121.735 0 110.307 0ZM110.225 34.2779C102.767 34.2779 96.7219 28.0356 96.7219 20.3361C96.7219 12.6367 102.767 6.39435 110.225 6.39435C117.682 6.39435 123.727 12.6367 123.727 20.3361C123.727 28.0356 117.682 34.2779 110.225 34.2779Z" fill="white"/>
<path d="M24.9746 9.58594H16.2463V52.9038H24.9746V9.58594Z" fill="url(#paint0_linear_4001_2)"/>
<path d="M29.6871 50.1622C29.6871 49.228 29.9377 48.497 30.4399 47.9679C30.941 47.44 31.5892 47.1748 32.3821 47.1748C32.9014 47.1748 33.3696 47.2989 33.7867 47.547C34.2039 47.7951 34.5213 48.1418 34.7402 48.5858C34.9591 49.0297 35.0685 49.5333 35.0685 50.0965C35.0685 50.6596 34.953 51.1778 34.7232 51.6279C34.4933 52.0779 34.1662 52.4197 33.7442 52.6508C33.3222 52.8819 32.8661 52.9987 32.3772 52.9987C31.847 52.9987 31.3739 52.871 30.9568 52.6143C30.5396 52.3589 30.2234 52.0086 30.0082 51.5658C29.7929 51.1231 29.6859 50.6548 29.6859 50.1609L29.6871 50.1622ZM30.4545 50.1743C30.4545 50.853 30.6369 51.387 31.0018 51.7775C31.3666 52.1679 31.8239 52.3625 32.3736 52.3625C32.9233 52.3625 33.3951 52.1655 33.7575 51.7714C34.12 51.3773 34.3012 50.8178 34.3012 50.094C34.3012 49.6355 34.2233 49.2365 34.0689 48.8947C33.9144 48.5529 33.687 48.2878 33.3891 48.1004C33.0911 47.9119 32.7567 47.8183 32.3857 47.8183C31.8592 47.8183 31.4055 47.9995 31.0249 48.362C30.6454 48.7244 30.4545 49.329 30.4545 50.1755V50.1743Z" fill="white"/>
<path d="M36.0403 52.9039V47.2759H38.5358C39.0368 47.2759 39.4187 47.327 39.6802 47.4279C39.9417 47.5289 40.1496 47.7077 40.3053 47.9631C40.4609 48.2185 40.54 48.502 40.54 48.8121C40.54 49.2111 40.4111 49.548 40.152 49.8217C39.893 50.0954 39.4941 50.2693 38.9541 50.3435C39.1512 50.4384 39.3007 50.532 39.4029 50.6233C39.6206 50.8228 39.8261 51.0721 40.0207 51.3713L40.9997 52.9027H40.0633L39.319 51.7314C39.1013 51.3932 38.9225 51.1354 38.7815 50.9553C38.6404 50.7765 38.5151 50.6512 38.4032 50.5795C38.2914 50.5077 38.1783 50.4578 38.0639 50.4299C37.98 50.4116 37.8414 50.4031 37.6492 50.4031H36.7858V52.9027H36.0415L36.0403 52.9039ZM36.7846 49.7597H38.385C38.7255 49.7597 38.9919 49.7244 39.1828 49.6538C39.3749 49.5833 39.5209 49.4714 39.6206 49.3157C39.7203 49.1612 39.7702 48.9921 39.7702 48.8109C39.7702 48.5445 39.6741 48.3256 39.4807 48.1541C39.2874 47.9826 38.9821 47.8974 38.565 47.8974H36.7846V49.7597Z" fill="white"/>
<path d="M44.3379 50.6962V50.0357L46.7216 50.032V52.1205C46.3555 52.4124 45.9785 52.6314 45.5893 52.7785C45.2002 52.9257 44.8013 52.9987 44.3914 52.9987C43.8393 52.9987 43.337 52.8807 42.8846 52.6435C42.4334 52.4063 42.0917 52.0645 41.8619 51.6169C41.632 51.1693 41.5165 50.6682 41.5165 50.116C41.5165 49.5637 41.6308 49.0565 41.8594 48.5821C42.0881 48.1078 42.4176 47.755 42.8481 47.5239C43.2787 47.294 43.7736 47.1785 44.3331 47.1785C44.7405 47.1785 45.1077 47.2442 45.4361 47.3767C45.7644 47.5081 46.0223 47.6918 46.2096 47.9277C46.3968 48.1637 46.5379 48.4702 46.6352 48.8485L45.9639 49.0334C45.88 48.7463 45.7742 48.5213 45.6489 48.3571C45.5237 48.1929 45.3449 48.0628 45.1114 47.9642C44.8791 47.8657 44.6201 47.8158 44.3355 47.8158C43.995 47.8158 43.7007 47.8681 43.4526 47.9715C43.2045 48.0749 43.0038 48.2111 42.8518 48.3802C42.6998 48.5493 42.5806 48.7342 42.4967 48.9373C42.3532 49.2852 42.2814 49.6635 42.2814 50.0697C42.2814 50.5709 42.3678 50.9905 42.5405 51.3287C42.7132 51.6668 42.9649 51.9174 43.2945 52.0816C43.624 52.2458 43.9755 52.3273 44.3464 52.3273C44.6687 52.3273 44.9837 52.2652 45.2902 52.1412C45.5966 52.0171 45.8301 51.8845 45.9882 51.7434V50.6949H44.3343L44.3379 50.6962Z" fill="white"/>
<path d="M47.202 52.9039L49.3631 47.2759H50.1658L52.4691 52.9039H51.6203L50.9635 51.1998H48.6103L47.9925 52.9039H47.202ZM48.8256 50.5929H50.7337L50.1463 49.0347C49.9675 48.5616 49.8337 48.1723 49.7474 47.867C49.6757 48.2283 49.5747 48.5859 49.4446 48.9423L48.8268 50.5929H48.8256Z" fill="white"/>
<path d="M53.0553 52.9039V47.2759H53.819L56.7742 51.6949V47.2759H57.4881V52.9039H56.7244L53.7692 48.4813V52.9039H53.0553Z" fill="white"/>
<path d="M58.8672 52.9039V47.2759H59.6115V52.9039H58.8672Z" fill="white"/>
<path d="M64.9393 50.9309L65.6836 51.1194C65.5279 51.7313 65.247 52.1971 64.8408 52.5182C64.4358 52.8394 63.9397 52.9999 63.3535 52.9999C62.7673 52.9999 62.2541 52.8759 61.8734 52.6289C61.494 52.382 61.2046 52.0244 61.0063 51.5561C60.8081 51.0878 60.7084 50.5843 60.7084 50.0478C60.7084 49.4616 60.8203 48.9507 61.044 48.514C61.2678 48.0774 61.5864 47.7465 61.9999 47.5203C62.4134 47.294 62.8682 47.1809 63.3644 47.1809C63.9275 47.1809 64.4006 47.3244 64.7849 47.6103C65.1692 47.8973 65.4355 48.2999 65.5875 48.8193L64.8542 48.9921C64.7241 48.5821 64.5343 48.2841 64.2863 48.098C64.0382 47.9107 63.7256 47.8183 63.3498 47.8183C62.9169 47.8183 62.5557 47.9217 62.265 48.1297C61.9744 48.3364 61.7701 48.615 61.6533 48.9641C61.5353 49.3132 61.477 49.6732 61.477 50.0442C61.477 50.5222 61.5463 50.9406 61.6862 51.2982C61.826 51.6559 62.0425 51.9222 62.3368 52.0986C62.6311 52.275 62.9497 52.3638 63.2927 52.3638C63.7098 52.3638 64.0625 52.2434 64.3519 52.0025C64.6414 51.7617 64.8372 51.4053 64.9393 50.9309Z" fill="white"/>
<path d="M68.8005 52.9039V47.2759H72.8697V47.94H69.546V49.6636H72.6593V50.3241H69.546V52.2398H73.0011V52.9039H68.8018H68.8005Z" fill="white"/>
<path d="M74.0215 52.9039V47.2759H74.7852L77.7404 51.6949V47.2759H78.4543V52.9039H77.6906L74.7354 48.4813V52.9039H74.0215Z" fill="white"/>
<path d="M79.7216 52.9039V47.2759H83.7908V47.94H80.467V49.6636H83.5804V50.3241H80.467V52.2398H83.9221V52.9039H79.7228H79.7216Z" fill="white"/>
<path d="M84.9607 52.9039V47.2759H87.4562C87.9573 47.2759 88.3391 47.327 88.6006 47.4279C88.8621 47.5289 89.07 47.7077 89.2257 47.9631C89.3814 48.2185 89.4604 48.502 89.4604 48.8121C89.4604 49.2111 89.3315 49.548 89.0725 49.8217C88.8146 50.0954 88.4145 50.2693 87.8746 50.3435C88.0716 50.4384 88.2212 50.532 88.3233 50.6233C88.541 50.8228 88.7465 51.0721 88.9411 51.3713L89.9201 52.9027H88.9837L88.2394 51.7314C88.0217 51.3932 87.8429 51.1354 87.7019 50.9553C87.5608 50.7765 87.4355 50.6512 87.3236 50.5795C87.213 50.5077 87.0987 50.4578 86.9843 50.4299C86.9004 50.4116 86.7618 50.4031 86.5696 50.4031H85.7062V52.9027H84.9619L84.9607 52.9039ZM85.705 49.7597H87.3054C87.6459 49.7597 87.9123 49.7244 88.1044 49.6538C88.2966 49.5833 88.4425 49.4714 88.5422 49.3157C88.6419 49.1612 88.6918 48.9921 88.6918 48.8109C88.6918 48.5445 88.5957 48.3256 88.4024 48.1541C88.209 47.9826 87.9038 47.8974 87.4866 47.8974H85.7062V49.7597H85.705Z" fill="white"/>
<path d="M93.2595 50.6962V50.0357L95.6432 50.032V52.1205C95.2771 52.4124 94.9001 52.6314 94.511 52.7785C94.1218 52.9257 93.7229 52.9987 93.3131 52.9987C92.7597 52.9987 92.2587 52.8807 91.8063 52.6435C91.3551 52.4063 91.0133 52.0645 90.7835 51.6169C90.5536 51.1693 90.4381 50.6682 90.4381 50.116C90.4381 49.5637 90.5524 49.0565 90.7823 48.5821C91.0109 48.1078 91.3405 47.755 91.771 47.5239C92.2015 47.294 92.6965 47.1785 93.2559 47.1785C93.6633 47.1785 94.0306 47.2442 94.3589 47.3767C94.6873 47.5081 94.9451 47.6918 95.1324 47.9277C95.3197 48.1637 95.4608 48.4702 95.5581 48.8485L94.8867 49.0334C94.8028 48.7463 94.697 48.5213 94.5718 48.3571C94.4465 48.1929 94.2677 48.0628 94.0342 47.9642C93.8019 47.8657 93.5429 47.8158 93.2583 47.8158C92.9178 47.8158 92.6235 47.8681 92.3754 47.9715C92.1273 48.0749 91.9267 48.2111 91.7746 48.3802C91.6226 48.5493 91.5047 48.7342 91.4195 48.9373C91.276 49.2852 91.2043 49.6635 91.2043 50.0697C91.2043 50.5709 91.2906 50.9905 91.4633 51.3287C91.636 51.6668 91.8877 51.9174 92.2173 52.0816C92.5469 52.2458 92.8984 52.3273 93.2693 52.3273C93.5916 52.3273 93.9065 52.2652 94.213 52.1412C94.5195 52.0171 94.753 51.8845 94.9111 51.7434V50.6949H93.2571L93.2595 50.6962Z" fill="white"/>
<path d="M98.326 52.9039V50.5199L96.1576 47.2759H97.0636L98.1727 48.9727C98.377 49.2902 98.568 49.6076 98.7443 49.9251C98.9134 49.6307 99.1177 49.2999 99.3585 48.9313L100.448 47.2771H101.315L99.0702 50.5211V52.9051H98.326V52.9039Z" fill="white"/>
</g>
<defs>
<linearGradient id="paint0_linear_4001_2" x1="20.6111" y1="15.3101" x2="20.6111" y2="47.3852" gradientUnits="userSpaceOnUse">
<stop stop-color="#FFFF5F" stop-opacity="0"/>
<stop offset="0.02" stop-color="#FFFA56" stop-opacity="0.01"/>
<stop offset="0.09" stop-color="#FFEE3F" stop-opacity="0.1089"/>
<stop offset="0.16" stop-color="#FFE42C" stop-opacity="0.2809"/>
<stop offset="0.23" stop-color="#FFDC1C" stop-opacity="0.49"/>
<stop offset="0.29" stop-color="#FFD610" stop-opacity="0.6889"/>
<stop offset="0.35" stop-color="#FFD107" stop-opacity="0.8464"/>
<stop offset="0.41" stop-color="#FFCE01" stop-opacity="0.9604"/>
<stop offset="0.46" stop-color="#FFCE00"/>
<stop offset="1" stop-color="#FF9F06"/>
</linearGradient>
<clipPath id="clip0_4001_2">
<rect width="131" height="53" fill="white"/>
</clipPath>
</defs>
</svg>
