<svg width="92" height="38" viewBox="0 0 92 38" fill="none" xmlns="http://www.w3.org/2000/svg">
<g clip-path="url(#clip0_4003_3)">
<path d="M65.7236 0.406294C65.809 0.271119 65.9978 0.0496055 65.616 0.0487334C63.8728 0.0469892 62.1296 0.0504776 60.3865 0.0504776C60.2695 0.0504776 60.1934 0.0722801 60.1174 0.19699C59.4717 1.25398 58.8115 2.30224 58.1547 3.35312C57.1324 4.98743 56.1109 6.62175 55.0877 8.25606C54.15 9.75346 53.2113 11.2509 52.2701 12.7456C52.0899 13.0326 52.0361 13.0317 51.8559 12.7413C50.913 11.2212 49.9752 9.69851 49.028 8.18106C48.9187 8.00577 48.9341 7.87234 49.04 7.71013C49.7677 6.59559 50.4911 5.4793 51.2136 4.36127C52.0848 3.013 52.9517 1.66125 53.8263 0.314724C53.9621 0.106292 53.9287 0.0408845 53.6836 0.0417566C51.9515 0.0478613 50.2195 0.0487334 48.4882 0.0461171C48.3243 0.0461171 48.2295 0.0940826 48.1372 0.245828C47.5573 1.19554 46.9611 2.1348 46.3718 3.07841C46.1583 3.42027 46.1028 3.42289 45.8961 3.08887C45.3102 2.14264 44.72 1.19816 44.1418 0.2467C44.0598 0.112397 43.9813 0.0496055 43.8241 0.0496055C42.0015 0.0522218 40.1789 0.0496055 38.3571 0.0443729C38.1171 0.0443729 38.1154 0.128967 38.2324 0.308619C38.838 1.24177 39.4384 2.1784 40.0397 3.11504C41.0509 4.6883 42.0604 6.26157 43.0734 7.83397C43.1835 8.0049 43.1981 8.14618 43.0768 8.3363C42.1356 9.81625 41.2055 11.3049 40.2771 12.7936C40.149 12.9985 40.0585 13.0308 39.9184 12.8014C39.2206 11.6546 38.5151 10.5122 37.8105 9.36973C36.9308 7.94385 36.0494 6.51971 35.1697 5.09383C34.1755 3.48306 33.1788 1.87317 32.1958 0.255421C32.1027 0.101932 32.0079 0.0487334 31.8482 0.0487334C30.0367 0.0496055 28.226 0.0487334 26.4145 0.0469892C26.2164 0.0469892 26.1309 0.0810011 26.2753 0.303387C27.0662 1.5252 27.8434 2.7566 28.63 3.98277C30.0964 6.26942 31.5672 8.55345 33.0336 10.8392C34.4523 13.05 35.8632 15.2651 37.2912 17.4689C37.4569 17.7244 37.5355 17.9704 37.5346 18.2721C37.5295 21.8669 37.5346 25.4608 37.5253 29.0556C37.5253 29.3609 37.6047 29.449 37.9053 29.4463C39.3427 29.4315 40.7802 29.4333 42.2176 29.4463C42.5157 29.449 42.5968 29.3548 42.5942 29.0513C42.5797 27.2138 42.5874 25.3763 42.5874 23.5387H42.5891C42.5891 21.7239 42.5925 19.9099 42.5857 18.0951C42.5848 17.8422 42.6395 17.6337 42.7796 17.4183C43.784 15.8843 44.7747 14.3416 45.7697 12.8006C45.9952 12.4517 46.0242 12.4491 46.2429 12.7892C47.2601 14.3695 48.2756 15.9497 49.2885 17.5317C49.4038 17.7122 49.5029 17.8919 49.502 18.1343C49.4926 21.7754 49.4978 25.4155 49.4858 29.0565C49.485 29.3705 49.5815 29.4472 49.871 29.4446C51.2973 29.4324 52.7236 29.428 54.1491 29.4463C54.4779 29.4507 54.5386 29.3373 54.5377 29.0277C54.5275 25.3754 54.5326 21.723 54.5275 18.0707C54.5275 17.8526 54.5719 17.6643 54.6897 17.4846C54.9596 17.0721 55.2218 16.6544 55.4892 16.241C57.018 13.8828 58.5502 11.5273 60.0756 9.16741C61.513 6.94355 62.9436 4.71534 64.3776 2.48974C64.8251 1.79555 65.2804 1.10572 65.7219 0.407166L65.7236 0.406294Z" fill="#CF0713"/>
<path d="M14.5331 0.0410156C6.5064 0.0410156 0 6.62275 0 14.7429C0 22.863 6.5064 29.4447 14.5331 29.4447C22.5597 29.4447 29.0661 22.8621 29.0661 14.7429C29.0661 6.62362 22.5589 0.0410156 14.5331 0.0410156ZM14.475 24.6177C9.23775 24.6177 4.99211 20.142 4.99211 14.6216C4.99211 9.10126 9.23775 4.62564 14.475 4.62564C19.7122 4.62564 23.9579 9.10126 23.9579 14.6216C23.9579 20.142 19.7122 24.6177 14.475 24.6177Z" fill="#CF0713"/>
<path d="M77.4667 0C69.44 0 62.9336 6.58261 62.9336 14.7019C62.9336 22.8211 69.44 29.4037 77.4667 29.4037C85.4933 29.4037 91.9997 22.8211 91.9997 14.7019C91.9997 6.58261 85.4925 0 77.4667 0ZM77.4086 24.5766C72.1713 24.5766 67.9257 20.101 67.9257 14.5806C67.9257 9.06024 72.1713 4.58463 77.4086 4.58463C82.6458 4.58463 86.8914 9.06024 86.8914 14.5806C86.8914 20.101 82.6458 24.5766 77.4086 24.5766Z" fill="#CF0713"/>
<path d="M17.5399 6.87305H11.4102V37.9311H17.5399V6.87305Z" fill="url(#paint0_linear_4003_3)"/>
<path d="M20.8485 35.9654C20.8485 35.2956 21.0245 34.7715 21.3772 34.3921C21.7291 34.0136 22.1843 33.8235 22.7412 33.8235C23.1058 33.8235 23.4347 33.9124 23.7276 34.0903C24.0206 34.2683 24.2435 34.5168 24.3972 34.8351C24.551 35.1534 24.6278 35.5145 24.6278 35.9183C24.6278 36.3221 24.5467 36.6936 24.3853 37.0162C24.2238 37.3389 23.9941 37.584 23.6977 37.7497C23.4014 37.9154 23.0811 37.9991 22.7377 37.9991C22.3654 37.9991 22.0331 37.9075 21.7402 37.7235C21.4472 37.5404 21.2252 37.2892 21.074 36.9718C20.9228 36.6543 20.8477 36.3186 20.8477 35.9645L20.8485 35.9654ZM21.3874 35.9741C21.3874 36.4607 21.5155 36.8436 21.7718 37.1235C22.028 37.4035 22.3491 37.543 22.7352 37.543C23.1212 37.543 23.4526 37.4017 23.7071 37.1192C23.9616 36.8366 24.0889 36.4354 24.0889 35.9165C24.0889 35.5877 24.0342 35.3017 23.9258 35.0566C23.8173 34.8116 23.6576 34.6215 23.4483 34.4872C23.2391 34.352 23.0042 34.2848 22.7437 34.2848C22.3739 34.2848 22.0553 34.4148 21.788 34.6747C21.5215 34.9345 21.3874 35.368 21.3874 35.975V35.9741Z" fill="#CF0713"/>
<path d="M25.3124 37.9312V33.896H27.065C27.4168 33.896 27.685 33.9326 27.8686 34.005C28.0523 34.0774 28.1983 34.2056 28.3076 34.3887C28.417 34.5719 28.4725 34.7751 28.4725 34.9975C28.4725 35.2835 28.3819 35.5251 28.2 35.7213C28.0181 35.9175 27.738 36.0422 27.3588 36.0954C27.4971 36.1635 27.6022 36.2306 27.6739 36.296C27.8268 36.439 27.9711 36.6178 28.1078 36.8324L28.7953 37.9303H28.1377L27.615 37.0905C27.4621 36.8481 27.3366 36.6632 27.2375 36.5341C27.1384 36.4059 27.0504 36.3161 26.9719 36.2646C26.8933 36.2132 26.8139 36.1774 26.7336 36.1574C26.6746 36.1443 26.5773 36.1382 26.4423 36.1382H25.8359V37.9303H25.3132L25.3124 37.9312ZM25.8351 35.6768H26.959C27.1982 35.6768 27.3852 35.6515 27.5193 35.6009C27.6543 35.5504 27.7568 35.4701 27.8268 35.3585C27.8968 35.2477 27.9318 35.1265 27.9318 34.9966C27.9318 34.8056 27.8644 34.6486 27.7286 34.5257C27.5928 34.4027 27.3784 34.3416 27.0855 34.3416H25.8351V35.6768Z" fill="#CF0713"/>
<path d="M31.1377 36.3483V35.8747L32.8117 35.8721V37.3695C32.5546 37.5788 32.2899 37.7358 32.0166 37.8413C31.7433 37.9468 31.4631 37.9992 31.1753 37.9992C30.7875 37.9992 30.4348 37.9146 30.1171 37.7445C29.8002 37.5745 29.5602 37.3294 29.3988 37.0085C29.2374 36.6875 29.1562 36.3282 29.1562 35.9323C29.1562 35.5364 29.2365 35.1727 29.3971 34.8326C29.5577 34.4925 29.7891 34.2395 30.0915 34.0738C30.3938 33.909 30.7414 33.8262 31.1343 33.8262C31.4204 33.8262 31.6784 33.8733 31.909 33.9683C32.1396 34.0625 32.3206 34.1942 32.4522 34.3634C32.5837 34.5326 32.6828 34.7523 32.7511 35.0236L32.2796 35.1561C32.2207 34.9503 32.1464 34.789 32.0584 34.6712C31.9704 34.5535 31.8449 34.4602 31.6809 34.3895C31.5178 34.3189 31.3359 34.2832 31.136 34.2832C30.8969 34.2832 30.6902 34.3207 30.5159 34.3948C30.3417 34.4689 30.2008 34.5666 30.094 34.6878C29.9873 34.809 29.9036 34.9416 29.8446 35.0872C29.7439 35.3366 29.6935 35.6079 29.6935 35.8992C29.6935 36.2585 29.7541 36.5593 29.8754 36.8018C29.9967 37.0442 30.1735 37.2239 30.4049 37.3416C30.6364 37.4593 30.8832 37.5178 31.1437 37.5178C31.37 37.5178 31.5912 37.4733 31.8065 37.3843C32.0217 37.2954 32.1857 37.2003 32.2967 37.0992V36.3474H31.1352L31.1377 36.3483Z" fill="#CF0713"/>
<path d="M33.1484 37.9312L34.6661 33.896H35.2298L36.8475 37.9312H36.2513L35.7901 36.7094H34.1375L33.7036 37.9312H33.1484ZM34.2886 36.2742H35.6287L35.2162 35.1571C35.0906 34.8178 34.9967 34.5387 34.936 34.3198C34.8856 34.5788 34.8148 34.8352 34.7234 35.0908L34.2895 36.2742H34.2886Z" fill="#CF0713"/>
<path d="M37.2578 37.9312V33.896H37.7942L39.8696 37.0643V33.896H40.3709V37.9312H39.8346L37.7592 34.7602V37.9312H37.2578Z" fill="#CF0713"/>
<path d="M41.3438 37.9312V33.896H41.8665V37.9312H41.3438Z" fill="#CF0713"/>
<path d="M45.6081 36.5166L46.1308 36.6517C46.0214 37.0904 45.8242 37.4244 45.5389 37.6547C45.2545 37.8849 44.906 38 44.4943 38C44.0827 38 43.7223 37.911 43.4549 37.734C43.1885 37.557 42.9852 37.3006 42.846 36.9648C42.7068 36.6291 42.6367 36.268 42.6367 35.8834C42.6367 35.4631 42.7153 35.0968 42.8724 34.7837C43.0296 34.4706 43.2534 34.2334 43.5438 34.0712C43.8341 33.909 44.1536 33.8279 44.502 33.8279C44.8975 33.8279 45.2297 33.9308 45.4996 34.1357C45.7695 34.3415 45.9565 34.6302 46.0633 35.0026L45.5483 35.1264C45.4569 34.8325 45.3237 34.6189 45.1494 34.4854C44.9752 34.3511 44.7557 34.2849 44.4918 34.2849C44.1877 34.2849 43.9341 34.359 43.7299 34.5081C43.5258 34.6564 43.3823 34.8561 43.3003 35.1064C43.2175 35.3567 43.1765 35.6148 43.1765 35.8808C43.1765 36.2235 43.2252 36.5235 43.3234 36.7799C43.4216 37.0363 43.5736 37.2273 43.7803 37.3538C43.987 37.4802 44.2108 37.5439 44.4516 37.5439C44.7446 37.5439 44.9923 37.4576 45.1955 37.2849C45.3988 37.1122 45.5363 36.8567 45.6081 36.5166Z" fill="#CF0713"/>
<path d="M48.3203 37.9312V33.896H51.1781V34.3722H48.8439V35.6079H51.0303V36.0815H48.8439V37.455H51.2703V37.9312H48.3212H48.3203Z" fill="#CF0713"/>
<path d="M51.9844 37.9312V33.896H52.5207L54.5962 37.0643V33.896H55.0975V37.9312H54.5611L52.4857 34.7602V37.9312H51.9844Z" fill="#CF0713"/>
<path d="M55.9844 37.9312V33.896H58.8421V34.3722H56.5079V35.6079H58.6944V36.0815H56.5079V37.455H58.9344V37.9312H55.9852H55.9844Z" fill="#CF0713"/>
<path d="M59.668 37.9312V33.896H61.4205C61.7724 33.896 62.0406 33.9326 62.2242 34.005C62.4079 34.0774 62.5539 34.2056 62.6632 34.3887C62.7726 34.5719 62.8281 34.7751 62.8281 34.9975C62.8281 35.2835 62.7375 35.5251 62.5556 35.7213C62.3746 35.9175 62.0936 36.0422 61.7144 36.0954C61.8527 36.1635 61.9578 36.2306 62.0295 36.296C62.1824 36.439 62.3267 36.6178 62.4634 36.8324L63.1509 37.9303H62.4933L61.9706 37.0905C61.8177 36.8481 61.6921 36.6632 61.5931 36.5341C61.494 36.4059 61.406 36.3161 61.3274 36.2646C61.2497 36.2132 61.1694 36.1774 61.0892 36.1574C61.0302 36.1443 60.9329 36.1382 60.7979 36.1382H60.1915V37.9303H59.6688L59.668 37.9312ZM60.1907 35.6768H61.3146C61.5538 35.6768 61.7408 35.6515 61.8758 35.6009C62.0107 35.5504 62.1132 35.4701 62.1832 35.3585C62.2533 35.2477 62.2883 35.1265 62.2883 34.9966C62.2883 34.8056 62.2208 34.6486 62.085 34.5257C61.9492 34.4027 61.7348 34.3416 61.4419 34.3416H60.1915V35.6768H60.1907Z" fill="#CF0713"/>
<path d="M65.4971 36.3483V35.8747L67.1711 35.8721V37.3695C66.914 37.5788 66.6493 37.7358 66.3759 37.8413C66.1026 37.9468 65.8225 37.9992 65.5347 37.9992C65.1461 37.9992 64.7942 37.9146 64.4765 37.7445C64.1596 37.5745 63.9196 37.3294 63.7582 37.0085C63.5968 36.6875 63.5156 36.3282 63.5156 35.9323C63.5156 35.5364 63.5959 35.1727 63.7573 34.8326C63.9179 34.4925 64.1494 34.2395 64.4517 34.0738C64.754 33.909 65.1017 33.8262 65.4945 33.8262C65.7806 33.8262 66.0386 33.8733 66.2692 33.9683C66.4998 34.0625 66.6809 34.1942 66.8124 34.3634C66.9439 34.5326 67.043 34.7523 67.1113 35.0236L66.6399 35.1561C66.5809 34.9503 66.5066 34.789 66.4186 34.6712C66.3307 34.5535 66.2051 34.4602 66.0411 34.3895C65.878 34.3189 65.6961 34.2832 65.4962 34.2832C65.2571 34.2832 65.0504 34.3207 64.8762 34.3948C64.7019 34.4689 64.561 34.5666 64.4543 34.6878C64.3475 34.809 64.2647 34.9416 64.2049 35.0872C64.1041 35.3366 64.0537 35.6079 64.0537 35.8992C64.0537 36.2585 64.1143 36.5593 64.2356 36.8018C64.3569 37.0442 64.5337 37.2239 64.7651 37.3416C64.9966 37.4593 65.2434 37.5178 65.5039 37.5178C65.7303 37.5178 65.9515 37.4733 66.1667 37.3843C66.3819 37.2954 66.5459 37.2003 66.6569 37.0992V36.3474H65.4954L65.4971 36.3483Z" fill="#CF0713"/>
<path d="M69.0541 37.9312V36.2219L67.5312 33.896H68.1675L68.9465 35.1126C69.09 35.3402 69.224 35.5678 69.3479 35.7954C69.4666 35.5844 69.6101 35.3472 69.7792 35.0829L70.5445 33.8969H71.1534L69.5768 36.2228V37.9321H69.0541V37.9312Z" fill="#CF0713"/>
</g>
<defs>
<linearGradient id="paint0_linear_4003_3" x1="14.4755" y1="10.9771" x2="14.4755" y2="33.9744" gradientUnits="userSpaceOnUse">
<stop stop-color="#FFFF5F" stop-opacity="0"/>
<stop offset="0.02" stop-color="#FFFA56" stop-opacity="0.01"/>
<stop offset="0.09" stop-color="#FFEE3F" stop-opacity="0.1089"/>
<stop offset="0.16" stop-color="#FFE42C" stop-opacity="0.2809"/>
<stop offset="0.23" stop-color="#FFDC1C" stop-opacity="0.49"/>
<stop offset="0.29" stop-color="#FFD610" stop-opacity="0.6889"/>
<stop offset="0.35" stop-color="#FFD107" stop-opacity="0.8464"/>
<stop offset="0.41" stop-color="#FFCE01" stop-opacity="0.9604"/>
<stop offset="0.46" stop-color="#FFCE00"/>
<stop offset="1" stop-color="#FF9F06"/>
</linearGradient>
<clipPath id="clip0_4003_3">
<rect width="92" height="38" fill="white"/>
</clipPath>
</defs>
</svg>
